# xmcd CD database file
#
# Track frame offsets:
#	150
#	17927
#	36065
#	52602
#	78360
#	100467
#	125240
#	144095
#	158090
#	179760
#	199770
#	223450
#	244947
#
# Disc length: 3775 seconds
#
# Revision: 0
# Processed by: cddbd v1.5.2PL0 Copyright (c) Steve Scherf et al.
# Submitted via: CDex 1.51
#
DISCID=ba0ebd0d
DTITLE=HARRY CONNICK, JR. - Come By Me
DYEAR=1999
DGENRE=Jazz
TTITLE0=Nowhere With Love
TTITLE1=Come By Me
TTITLE2=Charade
TTITLE3=Change Partners
TTITLE4=Easy For You To Say
TTITLE5=Time After Time
TTITLE6=Next Door Blues
TTITLE7=Easy To Love
TTITLE8=There's No Business Like Show Business
TTITLE9=A Moment With Me
TTITLE10=Danny Boy
TTITLE11=Cry Me A River
TTITLE12=Love For Sale
EXTD=YEAR: 1999
EXTT0=
EXTT1=
EXTT2=
EXTT3=
EXTT4=
EXTT5=
EXTT6=
EXTT7=
EXTT8=
EXTT9=
EXTT10=
EXTT11=
EXTT12=
PLAYORDER=
